<mxfile host="Electron" agent="Mozilla/5.0 (Windows NT 10.0; Win64; x64) AppleWebKit/537.36 (KHTML, like Gecko) draw.io/24.7.8 Chrome/128.0.6613.36 Electron/32.0.1 Safari/537.36" version="24.7.8">
  <diagram name="PÃ¡gina-1" id="2yNhoOkl5gLCW6Qr9wzW">
    <mxGraphModel dx="947" dy="622" grid="1" gridSize="10" guides="1" tooltips="1" connect="1" arrows="1" fold="1" page="1" pageScale="1" pageWidth="850" pageHeight="1100" math="0" shadow="0">
      <root>
        <mxCell id="0" />
        <mxCell id="1" parent="0" />
        <mxCell id="vNL6pm1dCJ_K4O5vO110-1" value="&lt;div style=&quot;color: rgb(204, 204, 204); background-color: rgb(31, 31, 31); font-family: Consolas, &amp;quot;Courier New&amp;quot;, monospace; font-size: 14px; line-height: 19px; white-space: pre;&quot;&gt;&lt;span style=&quot;color: #ce9178;&quot;&gt;Finetuning emdedings&lt;/span&gt;&lt;/div&gt;" style="whiteSpace=wrap;html=1;aspect=fixed;" parent="1" vertex="1">
          <mxGeometry x="190" y="200" width="80" height="80" as="geometry" />
        </mxCell>
        <mxCell id="vNL6pm1dCJ_K4O5vO110-2" value="&lt;div style=&quot;color: rgb(204, 204, 204); background-color: rgb(31, 31, 31); font-family: Consolas, &amp;quot;Courier New&amp;quot;, monospace; font-size: 14px; line-height: 19px; white-space: pre;&quot;&gt;&lt;span style=&quot;color: #ce9178;&quot;&gt;Chunking Strategy&lt;/span&gt;&lt;/div&gt;" style="whiteSpace=wrap;html=1;aspect=fixed;" parent="1" vertex="1">
          <mxGeometry x="380" y="200" width="70" height="70" as="geometry" />
        </mxCell>
        <mxCell id="vNL6pm1dCJ_K4O5vO110-3" style="rounded=0;orthogonalLoop=1;jettySize=auto;html=1;exitX=1;exitY=1;exitDx=0;exitDy=0;entryX=0.5;entryY=0;entryDx=0;entryDy=0;startArrow=classic;startFill=1;" parent="1" source="vNL6pm1dCJ_K4O5vO110-5" target="vNL6pm1dCJ_K4O5vO110-2" edge="1">
          <mxGeometry relative="1" as="geometry" />
        </mxCell>
        <mxCell id="QdqgM_wK1gFOsPG6jznP-6" style="edgeStyle=orthogonalEdgeStyle;rounded=0;orthogonalLoop=1;jettySize=auto;html=1;exitX=0.5;exitY=1;exitDx=0;exitDy=0;" edge="1" parent="1" source="vNL6pm1dCJ_K4O5vO110-5">
          <mxGeometry relative="1" as="geometry">
            <mxPoint x="320.0588235294117" y="269.9999999999999" as="targetPoint" />
          </mxGeometry>
        </mxCell>
        <mxCell id="vNL6pm1dCJ_K4O5vO110-5" value="&lt;div style=&quot;color: rgb(204, 204, 204); background-color: rgb(31, 31, 31); font-family: Consolas, &amp;quot;Courier New&amp;quot;, monospace; font-size: 14px; line-height: 19px; white-space: pre;&quot;&gt;&lt;span style=&quot;color: #ce9178;&quot;&gt;SGD&lt;/span&gt;&lt;/div&gt;" style="whiteSpace=wrap;html=1;aspect=fixed;" parent="1" vertex="1">
          <mxGeometry x="280" y="80" width="80" height="80" as="geometry" />
        </mxCell>
        <mxCell id="vNL6pm1dCJ_K4O5vO110-6" style="edgeStyle=orthogonalEdgeStyle;rounded=0;orthogonalLoop=1;jettySize=auto;html=1;entryX=0.5;entryY=0;entryDx=0;entryDy=0;" parent="1" source="vNL6pm1dCJ_K4O5vO110-7" target="vNL6pm1dCJ_K4O5vO110-5" edge="1">
          <mxGeometry relative="1" as="geometry" />
        </mxCell>
        <mxCell id="vNL6pm1dCJ_K4O5vO110-7" value="&lt;div style=&quot;color: rgb(204, 204, 204); background-color: rgb(31, 31, 31); font-family: Consolas, &amp;quot;Courier New&amp;quot;, monospace; font-size: 14px; line-height: 19px; white-space: pre;&quot;&gt;&lt;span style=&quot;color: #ce9178;&quot;&gt;Data,problem understanding&lt;/span&gt;&lt;/div&gt;" style="whiteSpace=wrap;html=1;aspect=fixed;" parent="1" vertex="1">
          <mxGeometry x="300" width="40" height="40" as="geometry" />
        </mxCell>
        <mxCell id="vNL6pm1dCJ_K4O5vO110-8" style="rounded=0;orthogonalLoop=1;jettySize=auto;html=1;exitX=0;exitY=1;exitDx=0;exitDy=0;entryX=0.366;entryY=-0.017;entryDx=0;entryDy=0;entryPerimeter=0;startArrow=classic;startFill=1;" parent="1" source="vNL6pm1dCJ_K4O5vO110-5" target="vNL6pm1dCJ_K4O5vO110-1" edge="1">
          <mxGeometry relative="1" as="geometry" />
        </mxCell>
        <mxCell id="vNL6pm1dCJ_K4O5vO110-23" style="edgeStyle=orthogonalEdgeStyle;rounded=0;orthogonalLoop=1;jettySize=auto;html=1;exitX=0.5;exitY=1;exitDx=0;exitDy=0;entryX=0.5;entryY=0;entryDx=0;entryDy=0;" parent="1" source="vNL6pm1dCJ_K4O5vO110-9" target="vNL6pm1dCJ_K4O5vO110-22" edge="1">
          <mxGeometry relative="1" as="geometry" />
        </mxCell>
        <mxCell id="vNL6pm1dCJ_K4O5vO110-9" value="&lt;font face=&quot;Consolas, Courier New, monospace&quot; color=&quot;#ce9178&quot;&gt;&lt;span style=&quot;font-size: 14px; white-space: pre;&quot;&gt;Evaluation methods&lt;/span&gt;&lt;/font&gt;&lt;div&gt;&lt;font face=&quot;Consolas, Courier New, monospace&quot; color=&quot;#ce9178&quot;&gt;&lt;span style=&quot;font-size: 14px; white-space: pre;&quot;&gt;&lt;br&gt;&lt;/span&gt;&lt;/font&gt;&lt;/div&gt;" style="whiteSpace=wrap;html=1;aspect=fixed;" parent="1" vertex="1">
          <mxGeometry x="305" y="410" width="40" height="40" as="geometry" />
        </mxCell>
        <mxCell id="vNL6pm1dCJ_K4O5vO110-10" value="&lt;div style=&quot;background-color: rgb(31, 31, 31); font-family: Consolas, &amp;quot;Courier New&amp;quot;, monospace; font-size: 14px; line-height: 19px; white-space: pre;&quot;&gt;&lt;font color=&quot;#33ff33&quot;&gt;1&lt;/font&gt;&lt;/div&gt;" style="whiteSpace=wrap;html=1;aspect=fixed;" parent="1" vertex="1">
          <mxGeometry x="170" width="40" height="40" as="geometry" />
        </mxCell>
        <mxCell id="vNL6pm1dCJ_K4O5vO110-11" value="&lt;div style=&quot;background-color: rgb(31, 31, 31); font-family: Consolas, &amp;quot;Courier New&amp;quot;, monospace; font-size: 14px; line-height: 19px; white-space: pre;&quot;&gt;&lt;font color=&quot;#33ff33&quot;&gt;2&lt;/font&gt;&lt;/div&gt;" style="whiteSpace=wrap;html=1;aspect=fixed;" parent="1" vertex="1">
          <mxGeometry x="230" y="100" width="40" height="40" as="geometry" />
        </mxCell>
        <mxCell id="vNL6pm1dCJ_K4O5vO110-12" value="&lt;div style=&quot;background-color: rgb(31, 31, 31); font-family: Consolas, &amp;quot;Courier New&amp;quot;, monospace; font-size: 14px; line-height: 19px; white-space: pre;&quot;&gt;&lt;font color=&quot;#33ff33&quot;&gt;3&lt;/font&gt;&lt;/div&gt;" style="whiteSpace=wrap;html=1;aspect=fixed;" parent="1" vertex="1">
          <mxGeometry x="100" y="220" width="40" height="40" as="geometry" />
        </mxCell>
        <mxCell id="vNL6pm1dCJ_K4O5vO110-14" value="&lt;div style=&quot;background-color: rgb(31, 31, 31); font-family: Consolas, &amp;quot;Courier New&amp;quot;, monospace; font-size: 14px; line-height: 19px; white-space: pre;&quot;&gt;&lt;font color=&quot;#33ff33&quot;&gt;5&lt;/font&gt;&lt;/div&gt;" style="whiteSpace=wrap;html=1;aspect=fixed;" parent="1" vertex="1">
          <mxGeometry x="380" y="280" width="40" height="40" as="geometry" />
        </mxCell>
        <mxCell id="vNL6pm1dCJ_K4O5vO110-15" style="edgeStyle=orthogonalEdgeStyle;rounded=0;orthogonalLoop=1;jettySize=auto;html=1;exitX=0.5;exitY=1;exitDx=0;exitDy=0;entryX=1;entryY=0.75;entryDx=0;entryDy=0;" parent="1" source="vNL6pm1dCJ_K4O5vO110-10" target="vNL6pm1dCJ_K4O5vO110-10" edge="1">
          <mxGeometry relative="1" as="geometry" />
        </mxCell>
        <mxCell id="vNL6pm1dCJ_K4O5vO110-16" value="&lt;div style=&quot;background-color: rgb(31, 31, 31); font-family: Consolas, &amp;quot;Courier New&amp;quot;, monospace; font-size: 14px; line-height: 19px; white-space: pre;&quot;&gt;&lt;font color=&quot;#33ff33&quot;&gt;4&lt;/font&gt;&lt;/div&gt;" style="whiteSpace=wrap;html=1;aspect=fixed;" parent="1" vertex="1">
          <mxGeometry x="490" y="215" width="40" height="40" as="geometry" />
        </mxCell>
        <mxCell id="vNL6pm1dCJ_K4O5vO110-18" style="edgeStyle=orthogonalEdgeStyle;rounded=0;orthogonalLoop=1;jettySize=auto;html=1;exitX=0.5;exitY=1;exitDx=0;exitDy=0;" parent="1" source="vNL6pm1dCJ_K4O5vO110-17" edge="1">
          <mxGeometry relative="1" as="geometry">
            <mxPoint x="320" y="380" as="targetPoint" />
          </mxGeometry>
        </mxCell>
        <mxCell id="vNL6pm1dCJ_K4O5vO110-21" style="edgeStyle=orthogonalEdgeStyle;rounded=0;orthogonalLoop=1;jettySize=auto;html=1;exitX=0.5;exitY=1;exitDx=0;exitDy=0;entryX=0.5;entryY=0;entryDx=0;entryDy=0;" parent="1" source="vNL6pm1dCJ_K4O5vO110-17" target="vNL6pm1dCJ_K4O5vO110-9" edge="1">
          <mxGeometry relative="1" as="geometry" />
        </mxCell>
        <mxCell id="vNL6pm1dCJ_K4O5vO110-17" value="&lt;div style=&quot;background-color: rgb(31, 31, 31); line-height: 19px;&quot;&gt;&lt;font face=&quot;Consolas, Courier New, monospace&quot; color=&quot;#ce9178&quot;&gt;&lt;span style=&quot;font-size: 14px; white-space: pre;&quot;&gt;Metrics&lt;/span&gt;&lt;/font&gt;&lt;br&gt;&lt;/div&gt;" style="whiteSpace=wrap;html=1;aspect=fixed;" parent="1" vertex="1">
          <mxGeometry x="305" y="340" width="40" height="40" as="geometry" />
        </mxCell>
        <mxCell id="vNL6pm1dCJ_K4O5vO110-20" value="&lt;div style=&quot;background-color: rgb(31, 31, 31); font-family: Consolas, &amp;quot;Courier New&amp;quot;, monospace; font-size: 14px; line-height: 19px; white-space: pre;&quot;&gt;&lt;font color=&quot;#33ff33&quot;&gt;6&lt;/font&gt;&lt;/div&gt;" style="whiteSpace=wrap;html=1;aspect=fixed;" parent="1" vertex="1">
          <mxGeometry x="380" y="340" width="40" height="40" as="geometry" />
        </mxCell>
        <mxCell id="vNL6pm1dCJ_K4O5vO110-22" value="&lt;div style=&quot;background-color: rgb(31, 31, 31); line-height: 19px;&quot;&gt;&lt;span style=&quot;background-color: initial; font-size: 14px; white-space: pre;&quot;&gt;&lt;font face=&quot;Consolas, Courier New, monospace&quot; color=&quot;#ce9178&quot;&gt;Rag strategy selection&lt;/font&gt;&lt;/span&gt;&lt;/div&gt;" style="whiteSpace=wrap;html=1;aspect=fixed;" parent="1" vertex="1">
          <mxGeometry x="300" y="490" width="50" height="50" as="geometry" />
        </mxCell>
        <mxCell id="vNL6pm1dCJ_K4O5vO110-25" value="&lt;div style=&quot;background-color: rgb(31, 31, 31); font-family: Consolas, &amp;quot;Courier New&amp;quot;, monospace; font-size: 14px; line-height: 19px; white-space: pre;&quot;&gt;&lt;font color=&quot;#33ff33&quot;&gt;7&lt;/font&gt;&lt;/div&gt;" style="whiteSpace=wrap;html=1;aspect=fixed;" parent="1" vertex="1">
          <mxGeometry x="385" y="430" width="40" height="40" as="geometry" />
        </mxCell>
        <mxCell id="QdqgM_wK1gFOsPG6jznP-7" style="edgeStyle=orthogonalEdgeStyle;rounded=0;orthogonalLoop=1;jettySize=auto;html=1;exitX=0.5;exitY=1;exitDx=0;exitDy=0;entryX=0.5;entryY=0;entryDx=0;entryDy=0;" edge="1" parent="1" source="QdqgM_wK1gFOsPG6jznP-1" target="vNL6pm1dCJ_K4O5vO110-17">
          <mxGeometry relative="1" as="geometry" />
        </mxCell>
        <mxCell id="QdqgM_wK1gFOsPG6jznP-1" value="&lt;div style=&quot;background-color: rgb(31, 31, 31); line-height: 19px;&quot;&gt;&lt;font face=&quot;Consolas, Courier New, monospace&quot; color=&quot;#ce9178&quot;&gt;&lt;span style=&quot;font-size: 14px; white-space: pre;&quot;&gt;Prompt&lt;/span&gt;&lt;/font&gt;&lt;br&gt;&lt;/div&gt;" style="whiteSpace=wrap;html=1;aspect=fixed;" vertex="1" parent="1">
          <mxGeometry x="305" y="280" width="40" height="40" as="geometry" />
        </mxCell>
        <mxCell id="QdqgM_wK1gFOsPG6jznP-2" value="&lt;div style=&quot;background-color: rgb(31, 31, 31); font-family: Consolas, &amp;quot;Courier New&amp;quot;, monospace; font-size: 14px; line-height: 19px; white-space: pre;&quot;&gt;&lt;font color=&quot;#33ff33&quot;&gt;8&lt;/font&gt;&lt;/div&gt;" style="whiteSpace=wrap;html=1;aspect=fixed;" vertex="1" parent="1">
          <mxGeometry x="380" y="530" width="40" height="40" as="geometry" />
        </mxCell>
      </root>
    </mxGraphModel>
  </diagram>
</mxfile>
